<?xml version="1.0" ?><!DOCTYPE svg  PUBLIC '-//W3C//DTD SVG 1.1//EN'  'http://www.w3.org/Graphics/SVG/1.1/DTD/svg11.dtd'><svg height="135px" style="enable-background:new 0 0 135 135;" version="1.1" viewBox="0 0 135 135" width="135px" xml:space="preserve" xmlns="http://www.w3.org/2000/svg" xmlns:xlink="http://www.w3.org/1999/xlink"><style type="text/css">
<![CDATA[
	.st0{fill:#EF3E42;}
	.st1{fill:#FFFFFF;}
	.st2{fill:none;}
	.st3{fill-rule:evenodd;clip-rule:evenodd;fill:#FFFFFF;}
]]>
</style><defs/><path d="M74.3,90.6c-10.6,0-20.6-4.1-28.1-11.6S34.6,61.5,34.6,50.9c0-10.6,4.1-20.6,11.6-28.1c7.5-7.5,17.5-11.6,28.1-11.6  c10.6,0,20.6,4.1,28.1,11.6c15.5,15.5,15.5,40.7,0,56.2C94.9,86.5,85,90.6,74.3,90.6L74.3,90.6z M74.3,22.8  c-7.5,0-14.6,2.9-19.9,8.2c-11,11-11,28.8,0,39.8c5.3,5.3,12.4,8.2,19.9,8.2c7.5,0,14.6-2.9,19.9-8.2c5.3-5.3,8.2-12.4,8.2-19.9  c0-7.5-2.9-14.6-8.2-19.9C88.9,25.7,81.9,22.8,74.3,22.8L74.3,22.8z M56.6,56.2V45.5H69V33.2h10.7v12.4h12.4v10.7H79.7v12.4H69V56.2  H56.6L56.6,56.2z M6.9,107.4l29.8-29.8c1.5,2.1,3.2,4.1,5,5.9c1.8,1.8,3.8,3.5,5.9,5l-29.8,29.8L6.9,107.4L6.9,107.4z"/><rect class="st2" height="135" id="_x3C_Slice_x3E__100_" width="135"/></svg>